<svg width="206" height="38" viewBox="0 0 206 38" fill="none" xmlns="http://www.w3.org/2000/svg">
<path d="M31.2749 7.34259C27.4022 7.34259 21.9311 7.66662 19.1352 10.461C17.9247 11.6716 17.3202 13.6449 17.4771 15.8785C17.4975 16.1735 17.6937 16.4248 17.9756 16.5179C18.256 16.6094 18.5641 16.5237 18.7559 16.2985C20.3108 14.4689 22.2435 13.0027 24.5046 11.9404C24.6964 11.8489 24.9231 11.8416 25.1295 11.9143C25.3111 11.9796 25.4535 12.1031 25.5276 12.2616C25.6816 12.5871 25.6322 13.0158 25.1207 13.257C25.0917 13.2715 25.0655 13.2904 25.0365 13.3035C25.0263 13.3079 25.0147 13.3064 25.006 13.3108C19.4346 15.9294 16.6954 20.4981 15.4514 25.1962C14.5446 19.3138 12.6294 15.8509 10.8202 13.7249C9.51095 12.0277 8.22341 11.1281 7.47943 10.6196C7.34136 10.5251 6.92435 10.2403 6.7514 10.0673C6.46803 9.78397 6.46803 9.32329 6.7514 9.03993C7.03477 8.75799 7.49687 8.75799 7.81218 9.07187C7.88923 9.14019 8.01272 9.22738 8.16966 9.33201L8.29902 9.4192C9.35108 10.1399 11.31 11.4783 13.0479 14.3599C13.2034 14.6171 13.5042 14.7552 13.7963 14.7C14.0928 14.6476 14.3252 14.4195 14.3834 14.1245C14.7627 12.1875 14.5927 9.31308 12.8649 7.58529C10.069 4.79229 4.59789 4.46826 0.726671 4.46826C0.32553 4.46819 0 4.79372 0 5.1948C0 9.06745 0.324032 14.5386 3.11846 17.3345C4.28387 18.4999 6.08147 19.0231 7.86736 19.0231C9.32486 19.0231 10.7533 18.6583 11.8476 18.0262C13.3399 21.1185 14.5316 25.7381 14.5316 32.8048C14.5316 33.2059 14.8571 33.5314 15.2582 33.5314C15.6592 33.5314 15.9848 33.2059 15.9848 32.8048C15.9848 28.8624 16.6605 24.1309 19.173 20.2364C20.18 21.2202 21.9137 21.8437 23.8347 21.9018C23.9306 21.9047 24.0251 21.9061 24.1195 21.9061C26.0711 21.9061 27.796 21.2944 28.8815 20.2073C31.6773 17.4115 31.9999 11.9403 31.9999 8.06763C32.0015 7.66662 31.6774 7.34259 31.2749 7.34259Z" fill="#00B307"/>
<path d="M54.304 18.576C55.4987 18.7893 56.512 19.4187 57.344 20.464C58.176 21.5093 58.592 22.6933 58.592 24.016C58.592 25.1467 58.2933 26.1707 57.696 27.088C57.12 27.984 56.2773 28.6987 55.168 29.232C54.0587 29.744 52.768 30 51.296 30H42.4V7.76H50.88C52.3947 7.76 53.696 8.016 54.784 8.528C55.872 9.04 56.6933 9.73333 57.248 10.608C57.8027 11.4613 58.08 12.4213 58.08 13.488C58.08 14.768 57.7387 15.8347 57.056 16.688C56.3733 17.5413 55.456 18.1707 54.304 18.576ZM46.048 17.104H50.56C51.7547 17.104 52.6827 16.8373 53.344 16.304C54.0267 15.7493 54.368 14.96 54.368 13.936C54.368 12.9333 54.0267 12.1547 53.344 11.6C52.6827 11.024 51.7547 10.736 50.56 10.736H46.048V17.104ZM50.976 27.024C52.2133 27.024 53.184 26.7253 53.888 26.128C54.592 25.5307 54.944 24.6987 54.944 23.632C54.944 22.544 54.5707 21.68 53.824 21.04C53.0773 20.4 52.0853 20.08 50.848 20.08H46.048V27.024H50.976ZM65.2443 6.32V30H61.5963V6.32H65.2443ZM76.7218 30.288C75.0578 30.288 73.5538 29.9147 72.2098 29.168C70.8658 28.4 69.8098 27.3333 69.0417 25.968C68.2737 24.5813 67.8898 22.9813 67.8898 21.168C67.8898 19.376 68.2844 17.7867 69.0738 16.4C69.8631 15.0133 70.9404 13.9467 72.3058 13.2C73.6711 12.4533 75.1964 12.08 76.8818 12.08C78.5671 12.08 80.0924 12.4533 81.4578 13.2C82.8231 13.9467 83.9004 15.0133 84.6898 16.4C85.4791 17.7867 85.8738 19.376 85.8738 21.168C85.8738 22.96 85.4684 24.5493 84.6578 25.936C83.8471 27.3227 82.7378 28.4 81.3298 29.168C79.9431 29.9147 78.4071 30.288 76.7218 30.288ZM76.7218 27.12C77.6604 27.12 78.5351 26.896 79.3458 26.448C80.1778 26 80.8498 25.328 81.3618 24.432C81.8738 23.536 82.1298 22.448 82.1298 21.168C82.1298 19.888 81.8844 18.8107 81.3938 17.936C80.9031 17.04 80.2524 16.368 79.4418 15.92C78.6311 15.472 77.7564 15.248 76.8177 15.248C75.8791 15.248 75.0044 15.472 74.1938 15.92C73.4044 16.368 72.7751 17.04 72.3058 17.936C71.8364 18.8107 71.6018 19.888 71.6018 21.168C71.6018 23.0667 72.0818 24.5387 73.0418 25.584C74.0231 26.608 75.2498 27.12 76.7218 27.12ZM96.168 30.288C94.504 30.288 93 29.9147 91.656 29.168C90.312 28.4 89.256 27.3333 88.488 25.968C87.72 24.5813 87.336 22.9813 87.336 21.168C87.336 19.376 87.7307 17.7867 88.52 16.4C89.3093 15.0133 90.3867 13.9467 91.752 13.2C93.1173 12.4533 94.6427 12.08 96.328 12.08C98.0133 12.08 99.5387 12.4533 100.904 13.2C102.269 13.9467 103.347 15.0133 104.136 16.4C104.925 17.7867 105.32 19.376 105.32 21.168C105.32 22.96 104.915 24.5493 104.104 25.936C103.293 27.3227 102.184 28.4 100.776 29.168C99.3893 29.9147 97.8533 30.288 96.168 30.288ZM96.168 27.12C97.1067 27.12 97.9813 26.896 98.792 26.448C99.624 26 100.296 25.328 100.808 24.432C101.32 23.536 101.576 22.448 101.576 21.168C101.576 19.888 101.331 18.8107 100.84 17.936C100.349 17.04 99.6987 16.368 98.888 15.92C98.0773 15.472 97.2027 15.248 96.264 15.248C95.3253 15.248 94.4507 15.472 93.64 15.92C92.8507 16.368 92.2213 17.04 91.752 17.936C91.2827 18.8107 91.048 19.888 91.048 21.168C91.048 23.0667 91.528 24.5387 92.488 25.584C93.4693 26.608 94.696 27.12 96.168 27.12ZM129.31 12.08C130.697 12.08 131.934 12.368 133.022 12.944C134.132 13.52 134.996 14.3733 135.614 15.504C136.254 16.6347 136.574 18 136.574 19.6V30H132.958V20.144C132.958 18.5653 132.564 17.36 131.774 16.528C130.985 15.6747 129.908 15.248 128.542 15.248C127.177 15.248 126.089 15.6747 125.278 16.528C124.489 17.36 124.094 18.5653 124.094 20.144V30H120.478V20.144C120.478 18.5653 120.084 17.36 119.294 16.528C118.505 15.6747 117.428 15.248 116.062 15.248C114.697 15.248 113.609 15.6747 112.798 16.528C112.009 17.36 111.614 18.5653 111.614 20.144V30H107.966V12.368H111.614V14.384C112.212 13.6587 112.969 13.0933 113.886 12.688C114.804 12.2827 115.785 12.08 116.83 12.08C118.238 12.08 119.497 12.3787 120.606 12.976C121.716 13.5733 122.569 14.4373 123.166 15.568C123.7 14.5013 124.532 13.6587 125.662 13.04C126.793 12.4 128.009 12.08 129.31 12.08ZM139.04 18.832C139.04 16.656 139.542 14.704 140.544 12.976C141.568 11.248 142.944 9.904 144.672 8.944C146.422 7.96266 148.331 7.472 150.4 7.472C152.768 7.472 154.87 8.05866 156.704 9.232C158.56 10.384 159.904 12.0267 160.736 14.16H156.352C155.776 12.9867 154.976 12.112 153.952 11.536C152.928 10.96 151.744 10.672 150.4 10.672C148.928 10.672 147.616 11.0027 146.464 11.664C145.312 12.3253 144.406 13.2747 143.744 14.512C143.104 15.7493 142.784 17.1893 142.784 18.832C142.784 20.4747 143.104 21.9147 143.744 23.152C144.406 24.3893 145.312 25.3493 146.464 26.032C147.616 26.6933 148.928 27.024 150.4 27.024C151.744 27.024 152.928 26.736 153.952 26.16C154.976 25.584 155.776 24.7093 156.352 23.536H160.736C159.904 25.6693 158.56 27.312 156.704 28.464C154.87 29.616 152.768 30.192 150.4 30.192C148.31 30.192 146.4 29.712 144.672 28.752C142.944 27.7707 141.568 26.416 140.544 24.688C139.542 22.96 139.04 21.008 139.04 18.832ZM162.83 21.104C162.83 19.3333 163.193 17.7653 163.918 16.4C164.665 15.0347 165.668 13.9787 166.926 13.232C168.206 12.464 169.614 12.08 171.15 12.08C172.537 12.08 173.742 12.3573 174.766 12.912C175.812 13.4453 176.644 14.1173 177.262 14.928V12.368H180.942V30H177.262V27.376C176.644 28.208 175.801 28.9013 174.734 29.456C173.668 30.0107 172.452 30.288 171.086 30.288C169.572 30.288 168.185 29.904 166.926 29.136C165.668 28.3467 164.665 27.2587 163.918 25.872C163.193 24.464 162.83 22.8747 162.83 21.104ZM177.262 21.168C177.262 19.952 177.006 18.896 176.494 18C176.004 17.104 175.353 16.4213 174.542 15.952C173.732 15.4827 172.857 15.248 171.918 15.248C170.98 15.248 170.105 15.4827 169.294 15.952C168.484 16.4 167.822 17.072 167.31 17.968C166.82 18.8427 166.574 19.888 166.574 21.104C166.574 22.32 166.82 23.3867 167.31 24.304C167.822 25.2213 168.484 25.9253 169.294 26.416C170.126 26.8853 171.001 27.12 171.918 27.12C172.857 27.12 173.732 26.8853 174.542 26.416C175.353 25.9467 176.004 25.264 176.494 24.368C177.006 23.4507 177.262 22.384 177.262 21.168ZM188.422 14.928C188.955 14.032 189.659 13.3387 190.534 12.848C191.43 12.336 192.486 12.08 193.702 12.08V15.856H192.774C191.344 15.856 190.256 16.2187 189.51 16.944C188.784 17.6693 188.422 18.928 188.422 20.72V30H184.774V12.368H188.422V14.928ZM200.351 15.344V25.104C200.351 25.7653 200.5 26.2453 200.799 26.544C201.119 26.8213 201.652 26.96 202.399 26.96H204.639V30H201.759C200.116 30 198.858 29.616 197.983 28.848C197.108 28.08 196.671 26.832 196.671 25.104V15.344H194.591V12.368H196.671V7.984H200.351V12.368H204.639V15.344H200.351Z" fill="white"/>
</svg>
