<svg width="206" height="39" viewBox="0 0 206 39" fill="none" xmlns="http://www.w3.org/2000/svg">
<path d="M31.2749 7.8428C27.4022 7.8428 21.9311 8.16683 19.1352 10.9613C17.9247 12.1718 17.3202 14.1451 17.4771 16.3787C17.4975 16.6737 17.6937 16.925 17.9756 17.0181C18.256 17.1096 18.5641 17.0239 18.7559 16.7987C20.3108 14.9691 22.2435 13.5029 24.5046 12.4406C24.6964 12.3491 24.9231 12.3418 25.1295 12.4145C25.3111 12.4799 25.4535 12.6033 25.5276 12.7618C25.6816 13.0873 25.6322 13.516 25.1207 13.7572C25.0917 13.7717 25.0655 13.7906 25.0365 13.8037C25.0263 13.8081 25.0147 13.8066 25.006 13.811C19.4346 16.4296 16.6954 20.9983 15.4514 25.6964C14.5446 19.814 12.6294 16.3511 10.8202 14.2251C9.51095 12.5279 8.22341 11.6283 7.47943 11.1198C7.34136 11.0253 6.92435 10.7405 6.7514 10.5675C6.46803 10.2842 6.46803 9.8235 6.7514 9.54013C7.03477 9.2582 7.49687 9.2582 7.81218 9.57208C7.88923 9.6404 8.01272 9.72759 8.16966 9.83222L8.29902 9.91941C9.35108 10.6402 11.31 11.9785 13.0479 14.8601C13.2034 15.1173 13.5042 15.2554 13.7963 15.2002C14.0928 15.1479 14.3252 14.9197 14.3834 14.6247C14.7627 12.6877 14.5927 9.81328 12.8649 8.0855C10.069 5.2925 4.59789 4.96847 0.726671 4.96847C0.32553 4.9684 0 5.29393 0 5.695C0 9.56765 0.324032 15.0388 3.11846 17.8347C4.28387 19.0001 6.08147 19.5233 7.86736 19.5233C9.32486 19.5233 10.7533 19.1585 11.8476 18.5264C13.3399 21.6187 14.5316 26.2383 14.5316 33.305C14.5316 33.7061 14.8571 34.0316 15.2582 34.0316C15.6592 34.0316 15.9848 33.7061 15.9848 33.305C15.9848 29.3626 16.6605 24.6311 19.173 20.7366C20.18 21.7205 21.9137 22.3439 23.8347 22.402C23.9306 22.4049 24.0251 22.4063 24.1195 22.4063C26.0711 22.4063 27.796 21.7946 28.8815 20.7076C31.6773 17.9117 31.9999 12.4405 31.9999 8.56783C32.0015 8.16683 31.6774 7.8428 31.2749 7.8428Z" fill="#00B307"/>
<path d="M54.304 19.076C55.4987 19.2893 56.512 19.9187 57.344 20.964C58.176 22.0093 58.592 23.1933 58.592 24.516C58.592 25.6467 58.2933 26.6707 57.696 27.588C57.12 28.484 56.2773 29.1987 55.168 29.732C54.0587 30.244 52.768 30.5 51.296 30.5H42.4V8.26H50.88C52.3947 8.26 53.696 8.516 54.784 9.028C55.872 9.54 56.6933 10.2333 57.248 11.108C57.8027 11.9613 58.08 12.9213 58.08 13.988C58.08 15.268 57.7387 16.3347 57.056 17.188C56.3733 18.0413 55.456 18.6707 54.304 19.076ZM46.048 17.604H50.56C51.7547 17.604 52.6827 17.3373 53.344 16.804C54.0267 16.2493 54.368 15.46 54.368 14.436C54.368 13.4333 54.0267 12.6547 53.344 12.1C52.6827 11.524 51.7547 11.236 50.56 11.236H46.048V17.604ZM50.976 27.524C52.2133 27.524 53.184 27.2253 53.888 26.628C54.592 26.0307 54.944 25.1987 54.944 24.132C54.944 23.044 54.5707 22.18 53.824 21.54C53.0773 20.9 52.0853 20.58 50.848 20.58H46.048V27.524H50.976ZM65.2443 6.82V30.5H61.5963V6.82H65.2443ZM76.7218 30.788C75.0578 30.788 73.5538 30.4147 72.2098 29.668C70.8658 28.9 69.8098 27.8333 69.0417 26.468C68.2737 25.0813 67.8898 23.4813 67.8898 21.668C67.8898 19.876 68.2844 18.2867 69.0738 16.9C69.8631 15.5133 70.9404 14.4467 72.3058 13.7C73.6711 12.9533 75.1964 12.58 76.8818 12.58C78.5671 12.58 80.0924 12.9533 81.4578 13.7C82.8231 14.4467 83.9004 15.5133 84.6898 16.9C85.4791 18.2867 85.8738 19.876 85.8738 21.668C85.8738 23.46 85.4684 25.0493 84.6578 26.436C83.8471 27.8227 82.7378 28.9 81.3298 29.668C79.9431 30.4147 78.4071 30.788 76.7218 30.788ZM76.7218 27.62C77.6604 27.62 78.5351 27.396 79.3458 26.948C80.1778 26.5 80.8498 25.828 81.3618 24.932C81.8738 24.036 82.1298 22.948 82.1298 21.668C82.1298 20.388 81.8844 19.3107 81.3938 18.436C80.9031 17.54 80.2524 16.868 79.4418 16.42C78.6311 15.972 77.7564 15.748 76.8177 15.748C75.8791 15.748 75.0044 15.972 74.1938 16.42C73.4044 16.868 72.7751 17.54 72.3058 18.436C71.8364 19.3107 71.6018 20.388 71.6018 21.668C71.6018 23.5667 72.0818 25.0387 73.0418 26.084C74.0231 27.108 75.2498 27.62 76.7218 27.62ZM96.168 30.788C94.504 30.788 93 30.4147 91.656 29.668C90.312 28.9 89.256 27.8333 88.488 26.468C87.72 25.0813 87.336 23.4813 87.336 21.668C87.336 19.876 87.7307 18.2867 88.52 16.9C89.3093 15.5133 90.3867 14.4467 91.752 13.7C93.1173 12.9533 94.6427 12.58 96.328 12.58C98.0133 12.58 99.5387 12.9533 100.904 13.7C102.269 14.4467 103.347 15.5133 104.136 16.9C104.925 18.2867 105.32 19.876 105.32 21.668C105.32 23.46 104.915 25.0493 104.104 26.436C103.293 27.8227 102.184 28.9 100.776 29.668C99.3893 30.4147 97.8533 30.788 96.168 30.788ZM96.168 27.62C97.1067 27.62 97.9813 27.396 98.792 26.948C99.624 26.5 100.296 25.828 100.808 24.932C101.32 24.036 101.576 22.948 101.576 21.668C101.576 20.388 101.331 19.3107 100.84 18.436C100.349 17.54 99.6987 16.868 98.888 16.42C98.0773 15.972 97.2027 15.748 96.264 15.748C95.3253 15.748 94.4507 15.972 93.64 16.42C92.8507 16.868 92.2213 17.54 91.752 18.436C91.2827 19.3107 91.048 20.388 91.048 21.668C91.048 23.5667 91.528 25.0387 92.488 26.084C93.4693 27.108 94.696 27.62 96.168 27.62ZM129.31 12.58C130.697 12.58 131.934 12.868 133.022 13.444C134.132 14.02 134.996 14.8733 135.614 16.004C136.254 17.1347 136.574 18.5 136.574 20.1V30.5H132.958V20.644C132.958 19.0653 132.564 17.86 131.774 17.028C130.985 16.1747 129.908 15.748 128.542 15.748C127.177 15.748 126.089 16.1747 125.278 17.028C124.489 17.86 124.094 19.0653 124.094 20.644V30.5H120.478V20.644C120.478 19.0653 120.084 17.86 119.294 17.028C118.505 16.1747 117.428 15.748 116.062 15.748C114.697 15.748 113.609 16.1747 112.798 17.028C112.009 17.86 111.614 19.0653 111.614 20.644V30.5H107.966V12.868H111.614V14.884C112.212 14.1587 112.969 13.5933 113.886 13.188C114.804 12.7827 115.785 12.58 116.83 12.58C118.238 12.58 119.497 12.8787 120.606 13.476C121.716 14.0733 122.569 14.9373 123.166 16.068C123.7 15.0013 124.532 14.1587 125.662 13.54C126.793 12.9 128.009 12.58 129.31 12.58ZM139.04 19.332C139.04 17.156 139.542 15.204 140.544 13.476C141.568 11.748 142.944 10.404 144.672 9.444C146.422 8.46266 148.331 7.972 150.4 7.972C152.768 7.972 154.87 8.55866 156.704 9.732C158.56 10.884 159.904 12.5267 160.736 14.66H156.352C155.776 13.4867 154.976 12.612 153.952 12.036C152.928 11.46 151.744 11.172 150.4 11.172C148.928 11.172 147.616 11.5027 146.464 12.164C145.312 12.8253 144.406 13.7747 143.744 15.012C143.104 16.2493 142.784 17.6893 142.784 19.332C142.784 20.9747 143.104 22.4147 143.744 23.652C144.406 24.8893 145.312 25.8493 146.464 26.532C147.616 27.1933 148.928 27.524 150.4 27.524C151.744 27.524 152.928 27.236 153.952 26.66C154.976 26.084 155.776 25.2093 156.352 24.036H160.736C159.904 26.1693 158.56 27.812 156.704 28.964C154.87 30.116 152.768 30.692 150.4 30.692C148.31 30.692 146.4 30.212 144.672 29.252C142.944 28.2707 141.568 26.916 140.544 25.188C139.542 23.46 139.04 21.508 139.04 19.332ZM162.83 21.604C162.83 19.8333 163.193 18.2653 163.918 16.9C164.665 15.5347 165.668 14.4787 166.926 13.732C168.206 12.964 169.614 12.58 171.15 12.58C172.537 12.58 173.742 12.8573 174.766 13.412C175.812 13.9453 176.644 14.6173 177.262 15.428V12.868H180.942V30.5H177.262V27.876C176.644 28.708 175.801 29.4013 174.734 29.956C173.668 30.5107 172.452 30.788 171.086 30.788C169.572 30.788 168.185 30.404 166.926 29.636C165.668 28.8467 164.665 27.7587 163.918 26.372C163.193 24.964 162.83 23.3747 162.83 21.604ZM177.262 21.668C177.262 20.452 177.006 19.396 176.494 18.5C176.004 17.604 175.353 16.9213 174.542 16.452C173.732 15.9827 172.857 15.748 171.918 15.748C170.98 15.748 170.105 15.9827 169.294 16.452C168.484 16.9 167.822 17.572 167.31 18.468C166.82 19.3427 166.574 20.388 166.574 21.604C166.574 22.82 166.82 23.8867 167.31 24.804C167.822 25.7213 168.484 26.4253 169.294 26.916C170.126 27.3853 171.001 27.62 171.918 27.62C172.857 27.62 173.732 27.3853 174.542 26.916C175.353 26.4467 176.004 25.764 176.494 24.868C177.006 23.9507 177.262 22.884 177.262 21.668ZM188.422 15.428C188.955 14.532 189.659 13.8387 190.534 13.348C191.43 12.836 192.486 12.58 193.702 12.58V16.356H192.774C191.344 16.356 190.256 16.7187 189.51 17.444C188.784 18.1693 188.422 19.428 188.422 21.22V30.5H184.774V12.868H188.422V15.428ZM200.351 15.844V25.604C200.351 26.2653 200.5 26.7453 200.799 27.044C201.119 27.3213 201.652 27.46 202.399 27.46H204.639V30.5H201.759C200.116 30.5 198.858 30.116 197.983 29.348C197.108 28.58 196.671 27.332 196.671 25.604V15.844H194.591V12.868H196.671V8.484H200.351V12.868H204.639V15.844H200.351Z" fill="#002603"/>
</svg>
